<?xml version="1.0" standalone="no"?>
<!DOCTYPE svg PUBLIC "-//W3C//DTD SVG 20010904//EN"
 "http://www.w3.org/TR/2001/REC-SVG-20010904/DTD/svg10.dtd">
<svg version="1.0" xmlns="http://www.w3.org/2000/svg"
 width="480.000000pt" height="480.000000pt" viewBox="0 0 480.000000 480.000000"
 preserveAspectRatio="xMidYMid meet">
<metadata>
Created by potrace 1.14, written by Peter Selinger 2001-2017
</metadata>
<g transform="translate(0.000000,480.000000) scale(0.100000,-0.100000)"
fill="#000000" stroke="none">
<path d="M42 4405 c3 -25 8 -30 33 -33 17 -2 53 -10 82 -18 46 -13 53 -19 74
-62 l23 -47 0 -865 c0 -648 -3 -876 -13 -908 -15 -53 -45 -73 -130 -87 -63
-11 -66 -12 -69 -41 l-3 -30 804 4 c716 3 805 2 819 -12 14 -13 16 -64 14
-398 -2 -357 -3 -386 -22 -423 -22 -47 -56 -66 -134 -74 -52 -6 -55 -7 -58
-36 l-3 -30 520 0 c286 1 523 4 527 7 3 4 4 18 0 31 -5 21 -13 25 -58 29 -73
6 -109 26 -133 73 -19 38 -20 63 -23 463 -3 401 -2 422 15 423 25 1 525 1 596
0 l58 -1 -3 -427 c-3 -488 -3 -487 -77 -516 -23 -10 -62 -17 -86 -17 -45 0
-45 0 -45 -34 l0 -35 419 2 419 2 123 -84 c271 -185 386 -294 430 -410 31 -79
37 -207 14 -268 -50 -129 -198 -202 -383 -187 -215 18 -349 147 -435 420 -28
88 -57 246 -57 308 0 23 -4 47 -9 55 -11 18 -61 24 -66 8 -2 -7 -6 -204 -10
-439 l-6 -428 35 0 c31 0 36 4 42 27 12 56 17 68 32 86 21 24 35 22 111 -17
157 -80 322 -116 526 -117 360 -2 603 95 760 302 26 35 66 142 74 200 27 193
-30 372 -166 519 -64 69 -231 202 -378 300 -138 92 -298 214 -348 265 -178
182 -143 453 67 519 85 27 212 19 284 -17 178 -90 304 -296 346 -564 l12 -78
37 -3 37 -3 0 213 c0 117 3 284 7 371 l6 157 -36 0 c-32 0 -37 -4 -43 -27 -12
-56 -17 -68 -32 -85 -8 -10 -21 -18 -29 -18 -7 0 -57 22 -111 49 -174 86 -277
111 -468 111 -119 0 -278 -23 -346 -49 -25 -9 -28 -8 -29 12 -4 95 0 761 6
802 9 75 42 104 134 118 70 11 71 12 71 42 l0 30 -520 0 -520 0 0 -31 c0 -31
1 -32 57 -39 74 -9 108 -27 130 -68 16 -29 18 -70 18 -457 l0 -425 -330 0
-330 0 0 420 c0 375 2 424 17 458 20 43 55 62 137 73 57 7 66 15 57 47 l-5 22
-518 -2 -518 -1 0 -28 c0 -26 3 -28 69 -41 121 -22 138 -54 139 -276 1 -140
-1 -159 -26 -239 -15 -47 -48 -128 -74 -179 -59 -119 -155 -219 -258 -270
l-70 -34 -157 0 c-178 0 -191 5 -208 81 -5 21 -10 227 -10 458 l0 419 62 -7
c80 -9 129 -27 187 -66 82 -57 159 -173 182 -278 12 -53 13 -53 48 -50 l36 3
-5 105 c-3 58 -5 250 -5 428 l0 322 -37 0 c-33 0 -37 -3 -43 -32 -13 -63 -74
-173 -128 -233 -61 -67 -133 -109 -214 -125 -90 -16 -83 -51 -83 414 0 243 4
426 10 447 19 68 34 74 194 74 l141 0 77 -37 c183 -90 283 -260 344 -585 4
-19 11 -23 38 -23 l33 0 6 343 c3 188 8 351 12 362 6 20 1 20 -840 20 l-846 0
3 -30z"/>
<path d="M2642 4361 c-72 -19 -127 -75 -161 -167 -17 -45 -22 -49 -55 -52 -45
-4 -47 -22 -2 -22 l33 0 -12 -47 c-7 -27 -32 -120 -55 -208 -23 -88 -55 -209
-70 -268 l-28 -109 21 6 c12 3 47 6 78 6 l56 0 67 258 c37 141 74 281 83 310
l14 52 45 0 c24 0 44 5 44 10 0 6 -18 10 -40 10 -23 0 -40 5 -40 11 0 7 9 44
21 83 25 85 50 116 93 116 l31 -1 -26 -16 c-31 -19 -59 -62 -59 -90 0 -29 32
-53 69 -53 43 0 68 14 86 50 14 26 14 34 1 65 -9 22 -26 39 -43 46 -39 15
-112 20 -151 10z"/>
<path d="M2067 4126 c-130 -36 -227 -173 -227 -319 0 -106 51 -152 165 -151
84 1 152 31 208 93 46 51 64 86 81 161 15 65 13 118 -7 159 -27 56 -129 83
-220 57z m88 -27 c23 -71 -61 -345 -125 -409 -32 -32 -40 -24 -40 38 0 107 56
281 116 359 29 38 40 41 49 12z"/>
</g>
</svg>
